<svg width="1600" height="162" viewBox="0 0 1600 162" fill="none" xmlns="http://www.w3.org/2000/svg">
<path d="M73.7203 5.51856H-52.4903V153.51H6.25435V121.302H73.6751C85.8307 121.302 136.939 118.839 136.939 63.4385C136.939 8.03779 91.7278 5.51856 73.7203 5.51856ZM73.7203 74.6113H-17.5598V73.1765L6.25435 63.4385V52.2092H73.6751L73.7203 74.6113Z" stroke="white" stroke-opacity="0.4"/>
<path d="M1183.15 5.56397L1132.29 96.5503L1081.44 5.56397H1013.01L1105.06 153.612H1159.52L1251.57 5.56397H1183.15Z" stroke="white" stroke-opacity="0.4"/>
<path d="M1300.23 5.51856L1208.18 153.566H1276.6L1288.87 131.639H1366.05L1378.3 153.578H1446.73L1354.68 5.51856H1300.23ZM1290.73 97.7815V96.3016L1313.96 86.8121L1327.51 62.6251L1347.16 97.7815H1290.73Z" stroke="white" stroke-opacity="0.4"/>
<path d="M348.486 63.4385C348.486 8.0265 303.241 5.51856 285.29 5.51856H151.229V153.51H209.973V121.302H259.432L284.342 153.566H352.124L317.532 108.762C333.303 102.368 348.486 89.4556 348.486 63.4385ZM285.223 52.2092V74.6564H186.17V73.1765L210.018 63.4385V52.2092H285.223Z" stroke="white" stroke-opacity="0.4"/>
<path d="M1583.88 153.567H1651.66L1617.06 108.762C1632.88 102.368 1648.01 89.4558 1648.01 63.4387C1648.01 8.02673 1602.83 5.56397 1584.75 5.56397H1450.72V153.555H1509.47V121.302H1558.93L1583.88 153.567ZM1584.73 52.2095V74.6567H1485.66V73.1768L1509.51 63.4387V52.2095H1584.73Z" stroke="white" stroke-opacity="0.4"/>
<path d="M604.194 80.9153C604.137 42.6748 586.683 1 481.666 1C376.648 1 359.195 42.6748 359.138 80.9153V81.0847C359.195 119.337 376.648 161 481.666 161C586.683 161 604.137 119.337 604.194 81.0847V80.9153ZM541.382 81.0282C541.382 94.8671 532.853 109.937 481.666 109.937C430.479 109.937 421.984 94.8671 421.984 81.0282C421.984 67.1894 430.513 52.1191 481.7 52.1191C532.887 52.1191 541.393 67.1894 541.416 81.0282H541.382Z" stroke="white" stroke-opacity="0.4"/>
<path d="M946.91 59.7446C907.574 59.0442 873.762 59.2137 873.762 51.5769C873.762 44.4597 900.333 42.912 917.967 42.912C932.834 42.912 957.507 45.1714 957.507 53.7233H1020.16C1020.16 53.7233 1029.44 1 916.318 1C800.128 1 813.244 58.9877 814.34 64.9977C815.436 71.0078 820.531 99.2843 888.279 101.815C956.027 104.345 964.398 103.939 964.398 110.31C964.398 116.682 944.866 119.551 916.951 119.551C889.036 119.551 874.022 116.411 874.022 107.509H810.872C810.872 107.509 799.236 161 915.685 161C1032.14 161 1028.14 115.608 1023.76 92.9692C1019.39 70.3299 986.247 60.4111 946.91 59.7446Z" stroke="white" stroke-opacity="0.4"/>
<path d="M620.847 5.56397V153.567H679.637V111.914H790.167V74.6567H655.789V73.1768L679.637 63.4387V55.3613H790.167V5.56397H620.847Z" stroke="white" stroke-opacity="0.4"/>
</svg>
