<svg width="220" height="22" viewBox="0 0 220 22" fill="none" xmlns="http://www.w3.org/2000/svg">
<path d="M16.2932 1.25564H-6.10352e-05V20.3607H7.58364V16.2028H16.2874C17.8566 16.2028 24.4545 15.8849 24.4545 8.73288C24.4545 1.58086 18.6179 1.25564 16.2932 1.25564ZM16.2932 10.1752H4.50933V9.99002L7.58364 8.73288V7.28323H16.2874L16.2932 10.1752Z" fill="#010101"/>
<path d="M159.516 1.2615L152.95 13.0075L146.386 1.2615H137.552L149.435 20.3739H149.438H156.463H156.466L168.349 1.2615H159.516Z" fill="#010101"/>
<path d="M181.659 1.25564H174.631L162.748 20.368H171.58L173.164 17.5373H183.128L184.71 20.3695H193.544L181.66 1.25564H181.659ZM173.404 13.1664V12.9754L176.403 11.7503L178.153 8.62787L180.689 13.1664H173.404Z" fill="#010101"/>
<path d="M51.7645 8.73288C51.7645 1.5794 45.9235 1.25564 43.6061 1.25564H26.2993V20.3607H33.883V16.2028H40.2679L43.4836 20.368H52.2341L47.7684 14.584C49.8044 13.7585 51.7645 12.0916 51.7645 8.73288ZM43.5974 7.28323V10.1811H30.8101V9.99002L33.8888 8.73288V7.28323H43.5974Z" fill="#010101"/>
<path d="M211.249 20.3681H220L215.533 14.584C217.575 13.7586 219.529 12.0916 219.529 8.73291C219.529 1.57943 213.695 1.2615 211.362 1.2615H194.059V20.3666H201.643V16.2029H208.028L211.249 20.3681ZM211.359 7.28326V10.1811H198.57V9.99006L201.649 8.73291V7.28326H211.359Z" fill="#010101"/>
<path d="M84.7754 10.9891C84.7681 6.05237 82.5149 0.67231 68.9575 0.67231C55.4002 0.67231 53.147 6.05237 53.1397 10.9891V11.0109C53.147 15.9491 55.4002 21.3277 68.9575 21.3277C82.5149 21.3277 84.7681 15.9491 84.7754 11.0109V10.9891ZM76.6667 11.0036C76.6667 12.7902 75.5656 14.7357 68.9575 14.7357C62.3495 14.7357 61.2528 12.7902 61.2528 11.0036C61.2528 9.2171 62.3539 7.27159 68.9619 7.27159C75.5699 7.27159 76.6681 9.2171 76.671 11.0036H76.6667Z" fill="#010101"/>
<path d="M129.019 8.25601C123.941 8.16559 119.576 8.18747 119.576 7.20159C119.576 6.28279 123.006 6.08299 125.283 6.08299C127.202 6.08299 130.387 6.37467 130.387 7.47868H138.475C138.475 7.47868 139.673 0.67231 125.07 0.67231C110.07 0.67231 111.763 8.1583 111.905 8.93417C112.046 9.71004 112.704 13.3604 121.45 13.6871C130.196 14.0138 131.277 13.9613 131.277 14.7838C131.277 15.6064 128.755 15.9768 125.151 15.9768C121.548 15.9768 119.609 15.5714 119.609 14.4222H111.457C111.457 14.4222 109.955 21.3277 124.988 21.3277C140.021 21.3277 139.505 15.4678 138.941 12.5452C138.376 9.62254 134.097 8.34206 129.019 8.25601Z" fill="#010101"/>
<path d="M94.5146 1.2615H86.925V20.3681H94.5146V14.9909H108.784V10.1811H91.4359V9.99006L94.5146 8.73291V7.69015H108.784V1.2615H94.5146Z" fill="#010101"/>
</svg>
