<svg width="22" height="22" viewBox="0 0 22 22" fill="none" xmlns="http://www.w3.org/2000/svg">
<path d="M10.2012 1.44788C10.2012 1.58675 10.3387 1.9305 10.3387 2.54788C10.3387 3.37288 10.1985 4.40344 9.92347 5.57219C9.57835 4.47356 9.44153 3.50969 9.44153 2.68469C9.44153 2.06456 9.57903 1.7215 9.64916 1.58469C9.78666 1.37706 9.85678 1.37706 9.9936 1.37706C10.0637 1.37706 10.1311 1.37706 10.2012 1.44788ZM12.9567 14.4389C11.2325 14.6451 9.3721 14.9889 7.64785 15.4701C8.61516 13.6806 9.44153 11.6889 10.1311 9.76388C10.8908 11.3451 11.8547 12.9938 12.9567 14.4389ZM17.026 15.4028C18.2677 15.4028 19.2315 15.5402 19.9204 15.7465C20.1287 15.8159 20.6808 16.0229 20.6808 16.2965C20.6808 16.5007 20.6808 16.9146 19.5093 16.9146C18.2677 16.9146 17.0962 16.3639 15.9913 15.4694C16.3365 15.4694 16.6809 15.4694 17.026 15.4028ZM4.47778 18.0125C3.37641 19.5938 2.34172 20.625 1.58272 20.625C1.44522 20.625 1.3751 20.5549 1.3751 20.5549C1.3751 19.7313 2.61672 18.8361 4.47778 18.0125ZM6.68603 17.2528C8.89222 16.4952 11.5123 15.9445 14.0629 15.6716C15.6497 17.2501 17.5107 18.3501 19.4419 18.3501C21.7175 18.3501 21.9925 16.9751 21.9925 16.3584C21.9925 15.741 21.6474 14.9834 20.2683 14.5028C19.0273 14.0924 17.0288 14.0229 14.5455 14.2292C12.9595 12.5104 11.5803 10.1743 10.6832 7.90556C11.3727 5.77569 11.7172 3.91806 11.7172 2.6125C11.7172 1.85556 11.5797 1.30762 11.3727 0.89375C11.0977 0.34375 10.613 0 9.9936 0C9.37485 0 8.8221 0.34375 8.47766 0.89375C8.19991 1.30762 8.06241 1.925 8.06241 2.68194C8.06241 3.98819 8.54435 5.84581 9.30403 7.83819C8.40753 10.5868 7.09853 13.6111 5.71941 16.0174C2.47991 17.1174 -0.00402832 18.6993 -0.00402832 20.5549C-0.00402832 21.2424 0.618159 22 1.58272 22C3.23616 22 5.02985 19.9375 6.68603 17.2528Z" fill="#F60606"/>
</svg>
