<svg width="60" height="60" viewBox="0 0 60 60" fill="none" xmlns="http://www.w3.org/2000/svg">
<circle cx="30" cy="30" r="30" fill="#8E24AA"/>
<path d="M47.6322 35.102C48.8038 25.2396 47.0693 19.0132 43.9406 16.197L43.9422 16.1954C38.8924 11.3861 21.8382 10.6743 15.7967 16.4114C13.0836 19.2178 12.128 23.3365 12.0232 28.4354C11.9185 33.536 11.7941 43.0907 20.6976 45.6827H20.7058L20.6976 49.6411C20.6976 49.6411 20.6371 51.2447 21.6614 51.5671C22.8331 51.9467 23.3632 51.2022 27.0074 46.8494C33.1013 47.378 37.7813 46.1671 38.3131 45.9903C39.5436 45.578 46.5064 44.6567 47.6322 35.102ZM27.608 44.0643C27.608 44.0643 23.7511 48.8736 22.5516 50.1222C22.1589 50.528 21.7285 50.4903 21.7351 49.6853C21.7351 49.1567 21.7645 43.1136 21.7645 43.1136C14.216 40.9503 14.6611 32.8143 14.7429 28.5581C14.8247 24.3003 15.6036 20.8132 17.9011 18.465C23.2012 13.4954 38.1527 14.6065 41.9622 18.1868C46.6193 22.3154 44.9616 33.9794 44.9715 34.3771C44.0142 42.3527 38.372 42.8583 37.3345 43.2036C36.8911 43.3509 32.7756 44.4096 27.608 44.0643Z" fill="white"/>
<path d="M29.7418 19.3994C29.1118 19.3994 29.1118 20.3812 29.7418 20.3894C34.6296 20.427 38.6551 23.8339 38.6993 30.0832C38.6993 30.7427 39.6647 30.7345 39.6565 30.075H39.6549C39.6025 23.3414 35.2073 19.437 29.7418 19.3994Z" fill="white"/>
<path d="M36.1711 29.0474C36.1564 29.6987 37.1202 29.7298 37.1284 29.0703C37.2085 25.3574 34.9193 22.299 30.6173 21.9767C29.9873 21.9309 29.9218 22.9209 30.5502 22.9667C34.2811 23.2498 36.2464 25.7959 36.1711 29.0474Z" fill="white"/>
<path d="M35.1402 33.2709C34.3318 32.8029 33.5087 33.0941 33.1684 33.554L32.4565 34.4752C32.0949 34.9432 31.4191 34.8811 31.4191 34.8811C26.4871 33.5769 25.1682 28.4158 25.1682 28.4158C25.1682 28.4158 25.1076 27.717 25.5593 27.3423L26.4494 26.6059C26.8945 26.2525 27.176 25.4016 26.7227 24.5654C25.5118 22.3776 24.6985 21.6232 24.2845 21.0439C23.8492 20.499 23.1947 20.3763 22.514 20.7445H22.4992C21.0838 21.5725 19.5342 23.1221 20.03 24.7176C20.876 26.3998 22.4305 31.7621 27.3854 35.8138C29.714 37.73 33.3991 39.6936 34.9634 40.1469L34.9782 40.1698C36.5196 40.6836 38.0185 39.0734 38.8187 37.6154V37.604C39.1738 36.8987 39.056 36.2311 38.5373 35.7941C37.6176 34.8974 36.23 33.9074 35.1402 33.2709Z" fill="white"/>
<path d="M31.2914 25.629C32.864 25.7207 33.6265 26.5421 33.7084 28.2292C33.7378 28.8887 34.6951 28.8429 34.6656 28.1834C34.5609 25.9809 33.4122 24.7536 31.3438 24.639C30.7138 24.6014 30.6549 25.5914 31.2914 25.629Z" fill="white"/>
</svg>
