<svg width="60" height="60" viewBox="0 0 60 60" fill="none" xmlns="http://www.w3.org/2000/svg">
<path d="M30.0075 0H29.9925C13.4513 0 0 13.455 0 30C0 36.5625 2.115 42.645 5.71125 47.5838L1.9725 58.7288L13.5037 55.0425C18.2475 58.185 23.9062 60 30.0075 60C46.5487 60 60 46.5412 60 30C60 13.4588 46.5487 0 30.0075 0Z" fill="#4CAF50"/>
<path d="M47.4641 42.3638C46.7403 44.4076 43.8678 46.1026 41.5766 46.5976C40.0091 46.9313 37.9616 47.1976 31.0691 44.3401C22.2528 40.6876 16.5753 31.7288 16.1328 31.1476C15.7091 30.5663 12.5703 26.4038 12.5703 22.0988C12.5703 17.7938 14.7566 15.6976 15.6378 14.7976C16.3616 14.0588 17.5578 13.7213 18.7053 13.7213C19.0766 13.7213 19.4103 13.7401 19.7103 13.7551C20.5916 13.7926 21.0341 13.8451 21.6153 15.2363C22.3391 16.9801 24.1016 21.2851 24.3116 21.7276C24.5253 22.1701 24.7391 22.7701 24.4391 23.3513C24.1578 23.9513 23.9103 24.2176 23.4678 24.7276C23.0253 25.2376 22.6053 25.6276 22.1628 26.1751C21.7578 26.6513 21.3003 27.1613 21.8103 28.0426C22.3203 28.9051 24.0828 31.7813 26.6778 34.0913C30.0266 37.0726 32.7416 38.0251 33.7128 38.4301C34.4366 38.7301 35.2991 38.6588 35.8278 38.0963C36.4991 37.3726 37.3278 36.1726 38.1716 34.9913C38.7716 34.1438 39.5291 34.0388 40.3241 34.3388C41.1341 34.6201 45.4203 36.7388 46.3016 37.1776C47.1828 37.6201 47.7641 37.8301 47.9778 38.2013C48.1878 38.5726 48.1878 40.3163 47.4641 42.3638Z" fill="white"/>
</svg>
